<svg width="24" height="24" viewBox="0 0 24 24" fill="none" xmlns="http://www.w3.org/2000/svg">
<g clip-path="url(#clip0_105_394)">
<path d="M21.71 20.29L16.02 14.64C17.0961 13.2715 17.6808 11.5809 17.68 9.83997C17.68 8.28937 17.2202 6.7736 16.3587 5.48432C15.4972 4.19504 14.2728 3.1902 12.8402 2.59681C11.4077 2.00342 9.83131 1.84813 8.3105 2.15064C6.78969 2.45315 5.39272 3.19983 4.29628 4.29627C3.19983 5.39271 2.45316 6.78968 2.15065 8.31049C1.84814 9.8313 2.00339 11.4076 2.59678 12.8402C3.19018 14.2728 4.19505 15.4972 5.48433 16.3587C6.77361 17.2202 8.2894 17.68 9.84001 17.68C11.5637 17.6804 13.2384 17.1069 14.6 16.05L20.29 21.71C20.3834 21.8026 20.4943 21.876 20.6161 21.9258C20.7379 21.9756 20.8684 22.0008 21 22C21.1316 22.0008 21.2621 21.9756 21.3839 21.9258C21.5057 21.876 21.6166 21.8026 21.71 21.71C21.8037 21.617 21.8781 21.5064 21.9289 21.3846C21.9796 21.2627 22.0058 21.132 22.0058 21C22.0058 20.868 21.9796 20.7373 21.9289 20.6154C21.8781 20.4936 21.8037 20.3829 21.71 20.29ZM4.00999 9.83997C4.00999 8.68691 4.35193 7.55976 4.99254 6.60102C5.63315 5.64228 6.54367 4.89506 7.60896 4.4538C8.67425 4.01254 9.84646 3.89706 10.9774 4.12201C12.1083 4.34697 13.1471 4.90219 13.9624 5.71753C14.7778 6.53288 15.333 7.57173 15.558 8.70264C15.7829 9.83355 15.6675 11.0058 15.2262 12.0711C14.785 13.1363 14.0377 14.0468 13.079 14.6874C12.1202 15.3281 10.9931 15.67 9.84001 15.67C8.29461 15.6673 6.81324 15.0522 5.72047 13.9595C4.62771 12.8667 4.01264 11.3854 4.00999 9.83997Z" fill="black"/>
</g>
<defs>
<clipPath id="clip0_105_394">
<rect width="20" height="20" fill="white" transform="translate(2 2)"/>
</clipPath>
</defs>
</svg>
